<svg width="321" height="221" viewBox="0 0 321 221" fill="none" xmlns="http://www.w3.org/2000/svg">
<path d="M0 88.7695V59.0332H22.2656V14.502H63.5742V59.0332H89.502V88.7695H63.5742V173.145C63.5742 179.688 64.4043 183.789 66.0645 185.449C67.7246 187.012 72.8027 187.793 81.2988 187.793C82.5684 187.793 83.8867 187.793 85.2539 187.793C86.7188 187.695 88.1348 187.598 89.502 187.5V218.701L69.7266 219.434C50 220.117 36.5234 216.699 29.2969 209.18C24.6094 204.395 22.2656 197.021 22.2656 187.061V88.7695H0ZM147.229 38.5254H104.895V0H147.229V38.5254ZM104.895 57.5684H147.229V217.236H104.895V57.5684ZM264.281 53.7598C280.785 53.7598 294.262 58.1055 304.711 66.7969C315.258 75.3906 320.531 89.6973 320.531 109.717V217.236H277.758V120.117C277.758 111.719 276.635 105.273 274.389 100.781C270.287 92.5781 262.475 88.4766 250.951 88.4766C236.791 88.4766 227.074 94.4824 221.801 106.494C219.066 112.842 217.699 120.947 217.699 130.811V217.236H176.098V57.8613H216.381V81.1523C221.752 72.9492 226.83 67.041 231.615 63.4277C240.209 56.9824 251.098 53.7598 264.281 53.7598Z" fill="black"/>
</svg>
